<svg width="24.000000" height="24.000000" viewBox="0 0 24 24" fill="none" xmlns="http://www.w3.org/2000/svg" xmlns:xlink="http://www.w3.org/1999/xlink">
	<desc>
			Created with Pixso.
	</desc>
	<defs>
		<clipPath id="clip5_1900">
			<rect id="icon-mail" width="24.000000" height="24.000000" fill="white" fill-opacity="0"/>
		</clipPath>
	</defs>
	<g clip-path="url(#clip5_1900)">
		<path id="Shape" d="M1 5.98C1 5.99 1 6 1 6.01L1 18C1 19.65 2.34 21 4 21L20 21C21.65 21 23 19.65 23 18L23 6.01C23 6 23 5.99 23 5.98C22.99 4.33 21.64 3 20 3L4 3C2.35 3 1 4.33 1 5.98ZM3.1 5.55C3.27 5.22 3.61 5 4 5L20 5C20.38 5 20.72 5.22 20.89 5.55L12 11.77L3.1 5.55ZM21 7.92L21 18C21 18.54 20.54 19 20 19L4 19C3.45 19 3 18.54 3 18L3 7.92L11.42 13.81C11.77 14.06 12.22 14.06 12.57 13.81L21 7.92Z" fill="#12F7D6" fill-opacity="1.000000" fill-rule="evenodd"/>
	</g>
</svg>
